<svg width="793" height="1123" viewBox="0 0 793 1123" fill="none" xmlns="http://www.w3.org/2000/svg">
<g opacity="0.5" clip-path="url(#clip0_7_11986)">
<path d="M728.5 1024L661 1102L583 1145L645.5 1193.5L830 1165L824.5 870L770 901L728.5 1024Z" fill="#535E88"/>
<path d="M42 677.5L-40 624L-33 950.5L51 883.5L19 787L42 677.5Z" fill="#616993"/>
<path d="M758 684L840 737.5L833 411L749 478L781 574.5L758 684Z" fill="#C0D5EF"/>
<path d="M19 883.5H-67.5V888L-22.5 1142.5L42 1102L27.5 1077L51 964L19 883.5Z" fill="#6C75A1"/>
<path d="M781 478H867.5V473.5L822.5 219L758 259.5L772.5 284.5L749 397.5L781 478Z" fill="#6CA18B"/>
<path d="M27.5 1076C-2.5 1103.33 -63.5 1159.4 -67.5 1165L444.5 1155.5L316.5 1076C259.167 1083.83 143.6 1099.1 140 1097.5C136.4 1095.9 63.5 1082.5 27.5 1076Z" fill="#99A5D3"/>
<path d="M151 60.0179C121 32.6846 60 -23.3821 56 -28.9821L568 -19.4821L440 60.0179C382.667 52.1846 267.1 36.9179 263.5 38.5179C259.9 40.1179 187 53.5179 151 60.0179Z" fill="#46D6AB"/>
<path d="M279.5 1064.5L224 1212C290.667 1226 428.1 1254.4 444.5 1256C460.9 1257.6 534 1151.67 574.5 1085.5L531.5 1097.5L410 1059.5L316.5 1105.5L279.5 1064.5Z" fill="#7E8DC8"/>
<path d="M403 71.5179L347.5 -75.9821C414.167 -89.9821 551.6 -118.382 568 -119.982C584.4 -121.582 657.5 -15.6488 698 50.5179L655 38.5179L533.5 76.5179L440 30.5179L403 71.5179Z" fill="#3EC197"/>
<path d="M531.5 1076L476 1182.5L688 1160L635 1064.5L593 1097.5L580.5 1052.5L541.5 1085.5L531.5 1076Z" fill="#424F85"/>
<path d="M655 60.0179L599.5 -46.4821L873 11L758.5 71.5179L716.5 38.5179L704 83.5179L665 50.5179L655 60.0179Z" fill="#18FFAE"/>
<path d="M829 512.5L746 644L779.75 757L759.5 826.5L779.75 833.5L759.5 886L829 936V512.5Z" fill="#A2B0BB"/>
<path d="M763.5 290.5L746 328L813.587 376.347L814.5 62L763.5 96L771 116.5L746 142.5L771 165L728 192L751 230L739 272.5L763.5 290.5Z" fill="#BCE8DB"/>
<path d="M34 604.5L51.5 642L-16.0865 690.347L-17 376L34 410L26.5 430.5L51.5 456.5L26.5 479L69.5 506L46.5 544L58.5 586.5L34 604.5Z" fill="#96C6E5"/>
<path d="M699 -13L774 15L782.5 74.5L806 95L788.5 -31L699 -13Z" fill="#5EC6C0"/>
<path d="M58 350.5L-9.5 576.5L-25 219L58 350.5Z" fill="#6EADA9"/>
<path d="M766 754.5L833.5 980.5L849 623L766 754.5Z" fill="#596E8D"/>
<path d="M290 49.5C294.4 47.5 367.833 -19.6667 404 -53H-54L-33 392L36 302L19 213.5L58 120.5L106.5 65.5C165.833 61 285.6 51.5 290 49.5Z" fill="#93F1EB"/>
<path d="M-39.8896 185.08L-117 145.885L-114.961 141.874L40.4733 -64.6096L79.6205 0.720353L55.3664 16.4363L25.1129 127.818L-39.8896 185.08Z" fill="#6CA18B"/>
</g>
<defs>
<clipPath id="clip0_7_11986">
<rect width="793" height="1123" fill="white"/>
</clipPath>
</defs>
</svg>
