<svg width="24" height="24" viewBox="0 0 24 24" fill="none" xmlns="http://www.w3.org/2000/svg">
<path d="M9.9999 2.4C9.9999 1.84772 9.55219 1.4 8.9999 1.4C8.44762 1.4 7.9999 1.84772 7.9999 2.4H9.9999ZM7.9999 21.6C7.9999 22.1523 8.44762 22.6 8.9999 22.6C9.55219 22.6 9.9999 22.1523 9.9999 21.6H7.9999ZM5.9999 3.4H17.9999V1.4H5.9999V3.4ZM20.5999 6V18H22.5999V6H20.5999ZM17.9999 20.6H5.9999V22.6H17.9999V20.6ZM3.3999 18V6H1.3999V18H3.3999ZM5.9999 20.6C4.56396 20.6 3.3999 19.4359 3.3999 18H1.3999C1.3999 20.5405 3.45939 22.6 5.9999 22.6V20.6ZM20.5999 18C20.5999 19.4359 19.4358 20.6 17.9999 20.6V22.6C20.5404 22.6 22.5999 20.5405 22.5999 18H20.5999ZM17.9999 3.4C19.4358 3.4 20.5999 4.56406 20.5999 6H22.5999C22.5999 3.45949 20.5404 1.4 17.9999 1.4V3.4ZM5.9999 1.4C3.45939 1.4 1.3999 3.45949 1.3999 6H3.3999C3.3999 4.56406 4.56396 3.4 5.9999 3.4V1.4ZM7.9999 2.4V21.6H9.9999V2.4H7.9999ZM2.9999 10H20.9999V8H2.9999V10Z" fill="black"/>
</svg>
